HIERARCHY
ROOT joint_Root
{
	OFFSET 0.0 0.0 0.0
	CHANNELS 6 Xposition Yposition Zposition Zrotation Xrotation Yrotation 
	JOINT Hips
	{
		OFFSET 4.5925 91.4895 -427.239
		CHANNELS 6 Xposition Yposition Zposition Zrotation Xrotation Yrotation 
		JOINT Spine
		{
			OFFSET 15.7357 0.0 0.0
			CHANNELS 6 Xposition Yposition Zposition Zrotation Xrotation Yrotation 
			JOINT Chest
			{
				OFFSET 8.98455 -0.406207 0.0
				CHANNELS 6 Xposition Yposition Zposition Zrotation Xrotation Yrotation 
				JOINT Neck
				{
					OFFSET 16.3773 0.0 0.0
					CHANNELS 6 Xposition Yposition Zposition Zrotation Xrotation Yrotation 
					JOINT Head
					{
						OFFSET 6.45672 0.0 0.0
						CHANNELS 6 Xposition Yposition Zposition Zrotation Xrotation Yrotation 
						End Site
						{
							OFFSET 0.0 0.0 0.0
						}
					}
				}
				JOINT Shoulder_L
				{
					OFFSET 12.9942 -0.242716 4.98039
					CHANNELS 6 Xposition Yposition Zposition Zrotation Xrotation Yrotation 
					JOINT UpperArm_L
					{
						OFFSET 5.34809 0.0 0.0
						CHANNELS 6 Xposition Yposition Zposition Zrotation Xrotation Yrotation 
						JOINT LowerArm_L
						{
							OFFSET 24.3286 1.87007e-05 0.0
							CHANNELS 6 Xposition Yposition Zposition Zrotation Xrotation Yrotation 
							JOINT Hand_L
							{
								OFFSET 22.2916 0.0 0.0
								CHANNELS 6 Xposition Yposition Zposition Zrotation Xrotation Yrotation 
								End Site
								{
									OFFSET 0.0 0.0 0.0
								}
							}
						}
					}
				}
				JOINT Shoulder_R
				{
					OFFSET 12.9945 -0.242716 -4.98039
					CHANNELS 6 Xposition Yposition Zposition Zrotation Xrotation Yrotation 
					JOINT UpperArm_R
					{
						OFFSET -5.34813 0.0 0.0
						CHANNELS 6 Xposition Yposition Zposition Zrotation Xrotation Yrotation 
						JOINT LowerArm_R
						{
							OFFSET -24.3289 0.000322201 0.0
							CHANNELS 6 Xposition Yposition Zposition Zrotation Xrotation Yrotation 
							JOINT Hand_R
							{
								OFFSET -22.2915 -0.000108084 0.0
								CHANNELS 6 Xposition Yposition Zposition Zrotation Xrotation Yrotation 
								End Site
								{
									OFFSET 0.0 0.0 0.0
								}
							}
						}
					}
				}
			}
		}
		JOINT UpperLeg_L
		{
			OFFSET -2.19248 -6.46944 0.0
			CHANNELS 6 Xposition Yposition Zposition Zrotation Xrotation Yrotation 
			JOINT LowerLeg_L
			{
				OFFSET 39.0811 0.0 -1.23785e-05
				CHANNELS 6 Xposition Yposition Zposition Zrotation Xrotation Yrotation 
				JOINT Foot_L
				{
					OFFSET 40.9854 0.0 -1.26872e-05
					CHANNELS 6 Xposition Yposition Zposition Zrotation Xrotation Yrotation 
					JOINT Toes_L
					{
						OFFSET 11.7543 0.0 0.0
						CHANNELS 6 Xposition Yposition Zposition Zrotation Xrotation Yrotation 
						End Site
						{
							OFFSET 0.0 0.0 0.0
						}
					}
				}
			}
		}
		JOINT UpperLeg_R
		{
			OFFSET -2.19251 6.46944 0.0
			CHANNELS 6 Xposition Yposition Zposition Zrotation Xrotation Yrotation 
			JOINT LowerLeg_R
			{
				OFFSET -39.0811 -0.00228153 -0.0401928
				CHANNELS 6 Xposition Yposition Zposition Zrotation Xrotation Yrotation 
				JOINT Foot_R
				{
					OFFSET -40.9854 0.0 0.0
					CHANNELS 6 Xposition Yposition Zposition Zrotation Xrotation Yrotation 
					JOINT Toes_R
					{
						OFFSET -11.7543 0.0 0.0
						CHANNELS 6 Xposition Yposition Zposition Zrotation Xrotation Yrotation 
						End Site
						{
							OFFSET 0.0 0.0 0.0
						}
					}
				}
			}
		}
	}
}
MOTION
Frames:	6
Frame Time:	0.0333333
0.000000 0.000000 0.000000 0.000000 0.000000 -0.000000 1.790120 91.383900 0.543419 89.082000 -12.307600 4.087310 15.735700 0.000005 -0.000001 74.774700 86.060000 -70.665800 8.984550 -0.406207 -0.000000 -0.064735 -2.349240 8.212570 16.377300 -0.000001 -0.000001 2.405600 -0.110740 -3.119490 6.456720 -0.000001 -0.000000 -1.773000 -0.937969 0.637166 12.994200 -0.242716 4.980390 -82.531700 -15.167900 -63.388500 5.348090 -0.000007 -0.000001 -16.676400 -69.819100 -57.627100 24.328600 0.000019 0.000005 4.822200 4.720250 -45.712000 22.291600 -0.000001 0.000005 21.589900 5.419840 -3.593740 12.994500 -0.242716 -4.980390 87.810000 7.604930 -73.883100 -5.348130 -0.000001 -0.000004 -57.233900 17.043100 3.290840 -24.328900 0.000322 -0.000009 -0.183577 -0.316677 -29.949000 -22.291500 -0.000108 -0.000004 19.147300 5.413220 -3.372040 -2.192480 -6.469440 -0.000000 -177.463000 -15.644800 -2.509790 39.081100 -0.000007 -0.000012 -0.126007 0.249238 26.820000 40.985400 -0.000006 -0.000013 0.230752 -0.867175 -70.142200 11.754300 -0.000000 0.000003 -0.000088 -0.000922 -16.613000 -2.192510 6.469440 -0.000001 174.396000 21.147900 175.430000 -39.081100 -0.002282 -0.040193 -0.086085 0.175657 26.972000 -40.985400 0.000008 0.000006 4.847630 23.081400 -68.849000 -11.754300 -0.000006 -0.000006 -0.000853 -0.013303 -17.114200
0.000000 0.000000 0.000000 0.000000 0.000000 -0.000000 1.712100 91.412300 0.459019 89.046300 -11.908700 4.037730 15.735700 0.000005 -0.000001 75.079800 86.051600 -71.110200 8.984550 -0.406207 -0.000000 -0.042866 -2.302840 7.934480 16.377300 -0.000001 -0.000001 2.459760 -0.096531 -3.127210 6.456720 -0.000001 -0.000000 -1.865270 -0.815466 0.668669 12.994200 -0.242716 4.980390 -82.677500 -14.715400 -63.166000 5.348090 -0.000007 -0.000001 -17.016800 -69.312900 -56.946600 24.328600 0.000019 0.000005 4.827230 4.489780 -47.170600 22.291600 -0.000001 0.000005 21.575100 5.413700 -3.388180 12.994500 -0.242716 -4.980390 87.753800 7.702350 -73.687500 -5.348130 -0.000001 -0.000004 -57.139500 16.889200 2.791280 -24.328900 0.000322 -0.000009 -0.370484 -0.630913 -30.349700 -22.291500 -0.000108 -0.000004 19.359900 5.413810 -3.391760 -2.192480 -6.469440 -0.000000 -177.363000 -15.594100 -2.627770 39.081100 -0.000007 -0.000012 -0.123894 0.245555 26.773200 40.985400 -0.000006 -0.000013 0.272857 -0.514101 -70.011500 11.754300 -0.000000 0.000003 -0.000101 -0.001039 -16.617400 -2.192510 6.469440 -0.000001 174.466000 21.602200 175.499000 -39.081100 -0.002282 -0.040193 -0.088737 0.182207 26.801700 -40.985400 0.000008 0.000006 4.834310 23.117900 -68.745800 -11.754300 -0.000006 -0.000006 -0.000811 -0.012680 -17.088900
0.000000 0.000000 0.000000 0.000000 0.000000 -0.000000 1.629400 91.425800 0.363510 89.030000 -11.421500 4.017190 15.735700 0.000005 -0.000001 75.501300 86.014500 -71.683200 8.984550 -0.406207 -0.000000 0.038174 -2.252260 7.633050 16.377300 -0.000001 -0.000001 2.466930 -0.136077 -3.116740 6.456720 -0.000001 -0.000000 -1.958980 -0.752359 0.670148 12.994200 -0.242716 4.980390 -82.861200 -14.160400 -62.889200 5.348090 -0.000007 -0.000001 -18.493000 -68.351100 -56.244100 24.328600 0.000019 0.000005 5.141550 4.265670 -50.421700 22.291600 -0.000001 0.000005 21.801400 5.404510 -3.084690 12.994500 -0.242716 -4.980390 87.711800 7.760790 -73.516500 -5.348130 -0.000001 -0.000004 -57.247200 16.465200 2.285960 -24.328900 0.000322 -0.000009 -0.439675 -0.744583 -30.501000 -22.291500 -0.000108 -0.000004 19.374900 5.414560 -3.416880 -2.192480 -6.469440 -0.000000 -177.289000 -15.374700 -2.761940 39.081100 -0.000007 -0.000012 -0.122664 0.242836 26.799900 40.985400 -0.000006 -0.000013 0.293800 -0.219255 -69.919400 11.754300 -0.000000 0.000003 -0.000095 -0.000984 -16.615300 -2.192510 6.469440 -0.000001 174.500000 21.986900 175.560000 -39.081100 -0.002282 -0.040193 -0.098738 0.203033 26.684600 -40.985400 0.000008 0.000006 4.560650 23.066200 -68.557900 -11.754300 -0.000006 -0.000006 -0.000721 -0.011361 -17.035300
0.000000 0.000000 0.000000 0.000000 0.000000 -0.000000 1.529520 91.449000 0.281430 89.003800 -10.846900 3.966050 15.735700 0.000005 -0.000001 76.119500 85.954600 -72.454000 8.984550 -0.406207 -0.000000 0.169330 -2.183110 7.330010 16.377300 -0.000001 -0.000001 2.286970 -0.266395 -2.960080 6.456720 -0.000001 -0.000000 -2.071710 -0.721319 0.565840 12.994200 -0.242716 4.980390 -83.242600 -13.262800 -62.684500 5.348090 -0.000007 -0.000001 -20.004600 -66.973400 -54.807500 24.328600 0.000019 0.000005 5.702710 3.955480 -55.362800 22.291600 -0.000001 0.000005 21.739300 5.394130 -2.747430 12.994500 -0.242716 -4.980390 87.661400 7.857820 -73.368200 -5.348130 -0.000001 -0.000004 -57.347600 16.421600 1.842890 -24.328900 0.000322 -0.000009 -0.571693 -0.964054 -30.622700 -22.291500 -0.000108 -0.000004 19.404300 5.412880 -3.360710 -2.192480 -6.469440 -0.000000 -177.196000 -15.135300 -2.928420 39.081100 -0.000007 -0.000012 -0.123275 0.244139 26.791100 40.985400 -0.000006 -0.000013 0.315615 0.133251 -69.788700 11.754300 -0.000000 0.000003 -0.000096 -0.000996 -16.615800 -2.192510 6.469440 -0.000001 174.595000 22.328100 175.631000 -39.081100 -0.002282 -0.040193 -0.102693 0.212321 26.530900 -40.985400 0.000008 0.000006 4.434050 22.847400 -68.439100 -11.754300 -0.000006 -0.000006 -0.000714 -0.011253 -17.030900
0.000000 0.000000 0.000000 0.000000 0.000000 -0.000000 1.413340 91.471500 0.220969 89.003300 -10.209600 3.943960 15.735700 0.000005 -0.000001 76.887500 85.890800 -73.386600 8.984550 -0.406207 -0.000000 0.312225 -2.091380 7.003330 16.377300 -0.000001 -0.000001 2.149020 -0.463905 -2.802940 6.456720 -0.000001 -0.000000 -2.314740 -0.752920 0.637314 12.994200 -0.242716 4.980390 -83.777300 -12.234000 -62.771700 5.348090 -0.000007 -0.000001 -21.212800 -64.971200 -52.120800 24.328600 0.000019 0.000005 6.298440 3.404380 -61.718800 22.291600 -0.000001 0.000005 21.368000 5.383690 -2.414420 12.994500 -0.242716 -4.980390 87.613500 7.994840 -73.319200 -5.348130 -0.000001 -0.000004 -57.471300 16.581200 1.568800 -24.328900 0.000322 -0.000009 -0.712053 -1.203920 -30.566700 -22.291500 -0.000108 -0.000004 19.499600 5.416220 -3.472070 -2.192480 -6.469440 -0.000000 -177.096000 -14.967100 -3.009670 39.081100 -0.000007 -0.000012 -0.121465 0.241147 26.734500 40.985400 -0.000006 -0.000013 0.358484 0.613342 -69.667800 11.754300 -0.000000 0.000003 -0.000101 -0.001035 -16.617200 -2.192510 6.469440 -0.000001 174.634000 22.744500 175.766000 -39.081100 -0.002282 -0.040193 -0.107932 0.224392 26.369900 -40.985400 0.000008 0.000006 4.266790 22.652800 -68.327200 -11.754300 -0.000006 -0.000006 -0.000773 -0.012123 -17.066300
0.000000 0.000000 0.000000 0.000000 0.000000 -0.000000 1.271400 91.502100 0.150391 88.980400 -9.504360 3.814330 15.735700 0.000005 -0.000001 77.828900 85.872400 -74.502500 8.984550 -0.406207 -0.000000 0.369464 -1.954400 6.655000 16.377300 -0.000001 -0.000001 1.978280 -0.757646 -2.488880 6.456720 -0.000001 -0.000000 -2.441320 -0.860971 0.581705 12.994200 -0.242716 4.980390 -84.433700 -11.184700 -63.324100 5.348090 -0.000007 -0.000001 -21.775800 -62.205400 -47.751300 24.328600 0.000019 0.000005 6.328970 2.427490 -69.101600 22.291600 -0.000001 0.000005 21.015600 5.372190 -2.054240 12.994500 -0.242716 -4.980390 87.565700 8.142290 -73.292500 -5.348130 -0.000001 -0.000004 -57.677900 17.022900 1.323770 -24.328900 0.000322 -0.000009 -0.844149 -1.451920 -30.146500 -22.291500 -0.000108 -0.000004 19.547100 5.415140 -3.436210 -2.192480 -6.469440 -0.000000 -176.977000 -14.805800 -3.217060 39.081100 -0.000007 -0.000012 -0.120354 0.239663 26.665100 40.985400 -0.000006 -0.000013 0.396930 1.159730 -69.513500 11.754300 -0.000000 0.000003 -0.000099 -0.001016 -16.616600 -2.192510 6.469440 -0.000001 174.760000 23.301100 175.802000 -39.081100 -0.002282 -0.040193 -0.110632 0.231597 26.196500 -40.985400 0.000008 0.000006 4.335530 22.462300 -68.301000 -11.754300 -0.000006 -0.000006 -0.000728 -0.011458 -17.039300
